<svg width="23" height="17" viewBox="0 0 23 17" fill="none" xmlns="http://www.w3.org/2000/svg">
<g clip-path="url(#clip0_15_155)">
<mask id="mask0_15_155" style="mask-type:luminance" maskUnits="userSpaceOnUse" x="0" y="0" width="23" height="17">
<path d="M0 0H23.0001V17H0V0Z" fill="white"/>
</mask>
<g mask="url(#mask0_15_155)">
<path fill-rule="evenodd" clip-rule="evenodd" d="M-1.4375 0H24.4375V17H-1.4375V0Z" fill="#199D00"/>
<path fill-rule="evenodd" clip-rule="evenodd" d="M5.08308 4.8188C5.05319 5.21595 5.01738 5.91487 5.35978 5.98656C5.77395 6.0258 5.54556 5.29573 5.69548 5.16335C5.72382 5.09794 5.77607 5.09761 5.78039 5.18012V5.79936C5.77661 6.00077 5.91094 6.06007 6.01528 6.10167C6.1239 6.09341 6.19641 6.09699 6.23896 6.20112L6.2899 7.27228C6.2899 7.27228 6.54178 7.34334 6.55377 6.66978C6.5658 6.27433 6.47359 5.9433 6.52766 5.86633C6.52955 5.79073 6.62752 5.78621 6.69544 5.82307C6.80373 5.8983 6.85194 5.99124 7.0202 5.95409C7.27618 5.88456 7.43009 5.76184 7.43386 5.56813C7.4189 5.38402 7.39794 5.19991 7.31702 5.0158C7.3283 4.9823 7.26759 4.89557 7.27885 4.86207C7.32487 4.93309 7.39488 4.92718 7.41078 4.86207C7.36722 4.72059 7.2996 4.58502 7.19 4.52632C7.09944 4.44769 6.96686 4.46376 6.91831 4.62779C6.89584 4.81678 6.98745 5.04133 7.1271 5.22438C7.15675 5.2959 7.19842 5.41473 7.1801 5.52175C7.10581 5.56355 7.03148 5.54612 6.96922 5.48134C6.96922 5.48134 6.76546 5.33073 6.76546 5.29726C6.81953 4.95607 6.77745 4.91738 6.7475 4.82269C6.72654 4.69197 6.66361 4.65007 6.61263 4.56078C6.56166 4.50753 6.49269 4.50753 6.45974 4.56078C6.36965 4.71468 6.41166 5.04498 6.47672 5.19297C6.52375 5.32904 6.59558 5.41444 6.56162 5.41444C6.53369 5.49133 6.47591 5.47357 6.43386 5.38482C6.37383 5.20137 6.3618 4.92764 6.3618 4.80443C6.34381 4.65159 6.324 4.32564 6.22195 4.24283C6.15968 4.15929 6.0674 4.20003 6.03516 4.2763C6.02846 4.42797 6.02775 4.57961 6.0451 4.71939C6.11508 4.96453 6.13708 5.18012 6.17104 5.43117C6.18047 5.76745 5.97374 5.57706 5.98317 5.41035C6.03085 5.1938 6.01848 4.85294 5.9761 4.76654C5.94254 4.68015 5.90289 4.65883 5.82122 4.67304C5.75636 4.66916 5.58949 4.84872 5.54263 5.14659C5.54263 5.14659 5.50267 5.29992 5.48565 5.43605C5.46274 5.58988 5.35998 5.69845 5.28789 5.4144C5.22562 5.20798 5.18735 4.69974 5.08304 4.81877L5.08308 4.8188Z" fill="white"/>
<path fill-rule="evenodd" clip-rule="evenodd" d="M6.20859 6.44828C5.8431 6.62436 5.48965 6.78862 5.13013 6.95878C5.14327 6.71786 5.64288 6.28296 5.98356 6.27686C6.20532 6.28296 6.1496 6.36149 6.20859 6.44828Z" fill="white"/>
<path fill-rule="evenodd" clip-rule="evenodd" d="M6.02022 6.78136C5.45184 8.22526 7.3512 8.42644 7.56345 6.84049C7.58343 6.77541 7.66352 6.71034 7.67753 6.81682C7.6335 8.25279 6.20838 8.35147 5.96621 7.89971C5.90621 7.79322 5.88815 7.55652 5.88215 7.41447C5.8461 7.13245 5.69604 7.24092 5.67202 7.52099C5.64796 7.67681 5.65399 7.72028 5.65399 7.87015C5.73003 9.00434 7.56551 8.51715 7.86371 7.58019C8.02182 7.06139 7.83767 6.67876 7.92372 6.68072C8.10589 6.87403 8.36002 6.70635 8.41608 6.63928C8.44014 6.60575 8.50021 6.5841 8.54222 6.62746C8.6843 6.72813 8.93456 6.68069 8.98658 6.50318C9.01663 6.3296 9.04065 6.1501 9.04665 5.96473C8.93052 6.00025 8.8445 6.02386 8.83648 6.07124L8.81246 6.22507C8.80249 6.27441 8.70232 6.27634 8.69838 6.21322C8.65435 6.01596 8.47221 5.99033 8.36211 6.29609C8.28802 6.35526 8.15396 6.36712 8.13991 6.27836C8.1579 6.0732 8.07384 6.04558 7.90576 6.14223C7.85168 5.73589 7.79768 5.34735 7.7436 4.94097C7.81368 4.93898 7.87776 4.99025 7.94184 4.91136C7.8717 4.6964 7.72362 4.25649 7.64152 4.22492C7.60149 4.1776 7.56739 4.20719 7.51544 4.21901C7.42737 4.24663 7.3453 4.3216 7.37128 4.46756C7.47538 5.09085 7.54344 5.56626 7.64755 6.18958C7.66352 6.26256 7.60149 6.35915 7.52144 6.34929C7.38533 6.25857 7.3514 6.07516 7.11916 6.083C6.95101 6.08499 6.7588 6.26448 6.73485 6.43814C6.70682 6.57613 6.69678 6.72601 6.73478 6.8464C6.85293 6.98642 6.99505 6.97267 7.11913 6.9411C7.22122 6.89969 7.30524 6.79909 7.34129 6.82273C7.36535 6.85235 7.34726 7.18365 6.86089 7.43815C6.56669 7.5683 6.33247 7.59796 6.20643 7.36122C6.12837 7.21326 6.21243 6.6511 6.02022 6.78132V6.78136Z" fill="white"/>
<path fill-rule="evenodd" clip-rule="evenodd" d="M8.43105 5.31339C8.54513 5.27195 9.08564 4.66247 9.08564 4.66247C9.05758 4.6388 9.03255 4.62104 9.00451 4.59736C8.97446 4.57173 8.97749 4.5461 9.00451 4.52043C9.13861 4.44353 9.09558 4.27486 9.02554 4.19796C8.90944 4.14663 8.80836 4.16343 8.73428 4.20088C8.64021 4.28967 8.61824 4.43164 8.69233 4.52043C8.76443 4.55397 8.83643 4.62598 8.78835 4.66543C8.56723 4.89818 7.96173 5.29961 8.03181 5.31339C8.04677 5.33311 8.41909 5.33211 8.43105 5.31339ZM5.16723 7.47059C4.96454 7.78881 4.94689 8.26425 5.05874 8.40599C5.11818 8.47296 5.21581 8.50228 5.28805 8.48133C5.4154 8.42688 5.47113 8.17261 5.44091 8.07957C5.39839 8.01403 5.36493 8.00364 5.32248 8.05942C5.23286 8.23872 5.19567 8.1157 5.18782 8.01549C5.17407 7.82547 5.19223 7.65046 5.21315 7.51187C5.23546 7.36982 5.21282 7.41325 5.16723 7.47059ZM13.8288 6.96093C13.6328 6.54519 13.3615 6.13437 13.2751 5.97655C13.1888 5.81867 12.5371 4.88659 12.4412 4.78177C12.2295 4.53384 12.785 4.88503 12.3709 4.39276C12.213 4.25929 12.2039 4.25115 12.0729 4.14225C12.0068 4.09603 11.8454 4.01159 11.8168 4.15154C11.8024 4.27496 11.8102 4.34186 11.8312 4.44463C11.8474 4.51313 11.9486 4.62784 11.9984 4.69431C12.6596 5.57021 13.2459 6.45474 13.8113 7.56688C13.9005 7.52505 13.881 7.03049 13.8288 6.96093H13.8288Z" fill="white"/>
<path fill-rule="evenodd" clip-rule="evenodd" d="M12.9686 8.3518C12.93 8.39443 13.0637 8.57678 13.2374 8.57658C13.528 8.54338 13.7837 8.38255 14.0206 7.95917C14.0839 7.86043 14.1952 7.64925 14.1985 7.48546C14.2206 6.52506 14.1497 5.77773 14.0037 5.08355C13.9943 5.01595 14 4.93646 14.0116 4.91621C14.0305 4.89406 14.0942 4.91631 14.1281 4.86162C14.1778 4.81165 13.9962 4.39777 13.8927 4.23836C13.856 4.16718 13.8432 4.11963 13.7824 4.24673C13.7184 4.34999 13.6754 4.53022 13.6804 4.69863C13.8191 5.64435 13.8616 6.47164 13.9522 7.41736C13.9596 7.50881 13.9459 7.64172 13.8842 7.69471C13.6561 7.92952 13.3267 8.21855 12.9686 8.3518ZM16.8933 8.34682C16.6848 8.46559 16.6845 8.60222 16.8531 8.60716C17.1437 8.57393 17.487 8.55015 17.7237 8.1978C17.7871 8.09906 17.8624 7.83207 17.8656 7.66828C17.8878 6.70788 17.8529 5.99102 17.7069 5.29691C17.6975 5.22928 17.6672 5.07366 17.6788 5.05337C17.6976 5.00582 17.7923 5.05855 17.8262 5.00383C17.8758 4.95389 17.581 4.58059 17.4775 4.42118C17.4407 4.35003 17.4279 4.30248 17.3671 4.42955C17.3031 4.53284 17.2808 4.71815 17.3064 4.88148C17.4605 5.90838 17.5751 6.67986 17.5988 7.59002C17.5855 7.67641 17.5822 7.723 17.5411 7.83184C17.4502 7.94672 17.3494 8.09032 17.255 8.15975C17.1605 8.22915 16.959 8.29542 16.8933 8.34685V8.34682Z" fill="white"/>
<path fill-rule="evenodd" clip-rule="evenodd" d="M17.0498 7.42616C17.0474 7.186 17.0532 6.97862 17.0452 6.79952C17.0372 6.62039 17.0051 6.47453 16.9422 6.34739C16.8826 6.21106 16.9196 6.10152 16.8916 5.95629C16.8637 5.81113 16.8706 5.59371 16.8283 5.42146C16.8168 5.35419 16.7813 5.13873 16.7923 5.11808C16.8095 5.07 16.875 5.11957 16.907 5.06386C16.955 5.01233 16.7407 4.46594 16.632 4.30991C16.5929 4.23996 16.522 4.26393 16.4345 4.37765C16.3533 4.45252 16.3834 4.62322 16.4144 4.78558C16.6229 5.85774 16.7783 6.82817 16.7444 7.8488C16.734 7.9356 17.0519 7.58998 17.0498 7.42616ZM15.5094 6.09638C15.3783 6.09402 15.1036 5.84489 15.0235 5.69893C14.9932 5.61523 15.0126 5.53355 15.0393 5.4857C15.0878 5.45459 15.1626 5.41963 15.2184 5.45316C15.2184 5.45316 15.2763 5.53298 15.2651 5.54314C15.3367 5.57695 15.3671 5.55749 15.3744 5.5288C15.3792 5.47853 15.3532 5.44858 15.3529 5.39323C15.3832 5.24315 15.5573 5.21981 15.6229 5.31554C15.6709 5.37388 15.6885 5.49789 15.6957 5.58159C15.695 5.62436 15.6247 5.57419 15.5848 5.58448C15.5448 5.59478 15.5352 5.6402 15.5321 5.68127C15.5249 5.79011 15.5118 5.96476 15.5094 6.09634V6.09638ZM13.0893 7.69245C13.1255 7.36613 13.076 6.78498 13.0727 6.59243C13.0594 6.13755 12.9841 5.25893 12.9482 5.11213C12.9077 4.83545 13.0636 5.14248 13.042 4.98165C12.9915 4.70536 12.836 4.51806 12.6532 4.26499C12.5942 4.18265 12.5962 4.16588 12.5052 4.28518C12.4045 4.5103 12.4914 4.66519 12.5175 4.84053C12.6493 5.41183 12.7262 5.93747 12.762 6.45709C12.7978 6.97672 12.8089 7.53859 12.7761 8.08587C12.8749 8.08969 13.0338 7.92839 13.0893 7.69245Z" fill="white"/>
<path fill-rule="evenodd" clip-rule="evenodd" d="M17.4959 7.16997C17.2647 6.78763 16.9158 6.37352 16.8226 6.21956C16.7294 6.06557 15.941 5.0631 15.8406 4.96249C15.5522 4.6639 15.9728 4.91388 15.7853 4.68325C15.6267 4.51166 15.5805 4.4578 15.4448 4.35461C15.3767 4.31128 15.3355 4.2285 15.3131 4.36955C15.3042 4.49346 15.2949 4.63684 15.3034 4.74126C15.3029 4.79933 15.3643 4.9084 15.4169 4.97269C16.1162 5.81937 16.8789 6.68387 17.4929 7.77071C17.5802 7.72506 17.5512 7.23724 17.4959 7.16997Z" fill="white"/>
<path fill-rule="evenodd" clip-rule="evenodd" d="M7.0052 6.46419C6.98856 6.49295 6.9515 6.5302 6.96393 6.56875C6.98987 6.60342 7.01063 6.61045 7.05389 6.61235C7.09142 6.61235 7.14384 6.62108 7.15513 6.59926C7.17534 6.57735 7.19067 6.53256 7.17386 6.49033C7.13478 6.39404 7.02562 6.4299 7.0052 6.46419Z" fill="#1BA400"/>
<path fill-rule="evenodd" clip-rule="evenodd" d="M14.8074 12.0376C15.1167 12.0488 15.319 12.0515 15.5941 12.0837C15.5941 12.0837 15.8313 12.0606 15.9159 12.048C16.2739 12.0143 16.2898 12.5519 16.2898 12.5519C16.2859 12.8672 16.1624 12.8837 16.0047 12.917C15.9147 12.9283 15.8673 12.8638 15.82 12.7952C15.7606 12.8197 15.6798 12.8232 15.582 12.8098C15.4531 12.8019 15.3243 12.8024 15.1954 12.7944C15.0585 12.7826 14.9857 12.8085 14.8488 12.7966C14.8206 12.8403 14.784 12.9007 14.7002 12.8813C14.6306 12.8737 14.5481 12.681 14.5723 12.5344C14.6226 12.4294 14.6088 12.4632 14.6036 12.417C13.3393 12.3853 12.0629 12.3297 10.8227 12.3456C9.85242 12.3496 8.8941 12.3892 7.93581 12.4289C7.42448 12.421 7.03393 12.3416 6.76416 11.9528C6.78832 11.9528 8.06869 12.0242 8.44317 12.0004C9.1357 11.9924 9.76782 11.9369 10.4724 11.917C11.8615 11.9408 13.2386 11.9409 14.6276 12.0361C14.4947 11.9465 14.49 11.7349 14.6945 11.6831C14.7119 11.6714 14.7208 11.7884 14.7514 11.7862C14.9151 11.7741 14.8433 11.9925 14.8073 12.0375L14.8074 12.0376ZM9.23051 4.49181C9.02 5.08478 9.35112 5.73341 9.58069 5.67025C9.74632 5.73782 9.85178 5.42731 9.9196 5.08711C9.96599 4.99162 10.001 4.98146 10.0248 5.03053C10.0187 5.48292 10.0578 5.58313 10.1759 5.72046C10.4391 5.92064 10.6569 5.74602 10.674 5.72916L10.879 5.52715C10.9246 5.47983 10.9853 5.47708 11.0498 5.51875C11.1124 5.57486 11.1036 5.67175 11.2377 5.73895C11.3505 5.78344 11.5918 5.74924 11.6477 5.65342C11.7229 5.52639 11.741 5.48276 11.7758 5.43458C11.8295 5.36415 11.921 5.39547 11.921 5.41771C11.9124 5.45699 11.8587 5.4963 11.8954 5.56703C11.9592 5.61421 11.974 5.58386 12.0117 5.57337C12.1453 5.51045 12.2455 5.22414 12.2455 5.22414C12.2515 5.11762 12.1909 5.12642 12.1516 5.14837C12.1004 5.17925 12.097 5.18911 12.0458 5.21999C11.9805 5.22955 11.8538 5.27222 11.7912 5.17666C11.7272 5.06174 11.7263 4.9014 11.6774 4.78552C11.6774 4.77709 11.5926 4.60297 11.6716 4.59182C11.7114 4.59912 11.7964 4.6213 11.81 4.55074C11.8518 4.48195 11.7205 4.28718 11.6306 4.1888C11.5526 4.10439 11.4445 4.09423 11.3402 4.1804C11.2672 4.24664 11.2777 4.32065 11.2633 4.39081C11.2447 4.47136 11.2487 4.57047 11.3317 4.67702C11.4046 4.81869 11.5376 5.00118 11.4939 5.25777C11.4939 5.25777 11.4162 5.37906 11.2808 5.36319C11.2244 5.35107 11.1329 5.32746 11.084 4.97159C11.0469 4.70225 11.0927 4.32536 10.9767 4.14869C10.9348 4.04201 10.9042 3.93898 10.8021 4.12146C10.7747 4.19311 10.6569 4.30185 10.7423 4.52551C10.8122 4.66729 10.8406 4.89805 10.8089 5.15484C10.7605 5.22779 10.7498 5.25249 10.6863 5.32547C10.5971 5.41994 10.5004 5.39583 10.4263 5.36054C10.357 5.31455 10.3028 5.29078 10.2712 5.14468C10.277 4.91183 10.2901 4.53062 10.2469 4.44977C10.1832 4.32453 10.0782 4.36982 10.0334 4.40767C9.81785 4.60188 9.71138 4.92956 9.64629 5.1905C9.58652 5.38066 9.52291 5.32617 9.47817 5.24944C9.36935 5.1489 9.36194 4.36258 9.23051 4.49188V4.49181Z" fill="white"/>
<path fill-rule="evenodd" clip-rule="evenodd" d="M9.86427 5.78057C9.95985 5.71384 9.91518 5.66722 10.0581 5.80807C10.2371 6.10962 10.3522 6.50018 10.3694 6.84619C10.3619 6.93146 10.4228 6.98541 10.4507 6.96689C10.4673 6.76671 10.9613 6.4878 11.4142 6.44703C11.4834 6.43218 11.4498 6.30136 11.461 6.23466C11.4339 5.98686 11.6023 5.76125 11.8384 5.74325C12.1598 5.79007 12.2668 5.95914 12.2722 6.21723C12.2375 6.71269 11.7138 6.79669 11.4195 6.8362C11.3744 6.85303 11.3556 6.87355 11.4195 6.89783L12.6524 6.90334L12.7153 6.93913C12.7229 6.96812 12.6974 6.94394 12.6487 7.02293C12.6 7.10192 12.5282 7.28408 12.5245 7.4057C12.1572 7.52211 11.7773 7.57311 11.3911 7.61913C11.2569 7.686 11.1904 7.77509 11.218 7.87536C11.2631 7.98659 11.5603 8.09769 11.5603 8.10297C11.6167 8.13783 11.6835 8.21924 11.5443 8.38602C10.9429 8.35996 10.4769 8.10771 10.3155 7.75171C10.2669 7.71456 10.2146 7.75151 10.181 7.79962C9.94621 8.09792 9.71518 8.36653 9.31486 8.50914C9.07613 8.56791 8.83176 8.47305 8.71634 8.31899C8.63908 8.2313 8.64201 8.13448 8.61364 8.11349C8.48461 8.16974 7.37431 8.63468 7.51503 8.4181C7.78524 8.13305 8.25308 7.9237 8.66624 7.64237C8.69605 7.54811 8.75026 7.22926 8.91343 7.1254C8.92286 7.12616 8.88759 7.31266 8.89113 7.39129C8.89298 7.45584 8.88631 7.48114 8.90066 7.46454C8.92852 7.44701 9.42985 7.05879 9.4686 6.93976C9.51745 6.8715 9.48325 6.69861 9.48325 6.69336C9.38925 6.45456 9.25735 6.43428 9.20847 6.31564C9.16446 6.15803 9.18438 5.97813 9.27578 5.928C9.35698 5.85538 9.4531 5.86434 9.54177 5.9437C9.64305 6.03308 9.73297 6.20776 9.75898 6.33789C9.7416 6.38935 9.62647 6.30369 9.58655 6.32926C9.65723 6.40137 9.69022 6.48458 9.71576 6.58638C9.78105 6.85894 9.76114 6.9649 9.69541 7.14114C9.47284 7.60233 9.18839 7.73996 8.93951 7.91082C8.93287 7.91314 8.92846 8.02786 9.02205 8.08988C9.05433 8.12329 9.18414 8.14042 9.3368 8.09221C9.63176 7.9337 9.93795 7.64167 10.09 7.31635C10.1341 7.07028 10.0729 6.80934 10.008 6.58176C9.91016 6.35937 9.79497 6.04182 9.79497 6.03657C9.79116 5.89788 9.80261 5.84977 9.86434 5.78057H9.86427ZM6.63629 4.49794C6.7782 4.56464 7.04501 4.53625 7.03372 4.31074C7.03372 4.29082 7.02856 4.22335 7.02654 4.20505C6.99757 4.13858 6.91856 4.15501 6.90064 4.22365C6.89501 4.24612 6.91068 4.28275 6.89002 4.29404C6.87817 4.30582 6.83282 4.29888 6.8347 4.23659C6.8347 4.21674 6.81988 4.19542 6.81092 4.18281C6.80196 4.17703 6.79626 4.17543 6.78002 4.17543C6.76021 4.1762 6.76055 4.18128 6.7497 4.19768C6.74508 4.21435 6.73875 4.23065 6.73875 4.24958C6.73626 4.27176 6.72777 4.27966 6.71122 4.28295C6.69273 4.28295 6.69691 4.28494 6.68191 4.27554C6.67302 4.26591 6.6619 4.26226 6.6619 4.24589C6.6619 4.22892 6.65799 4.20147 6.6528 4.19028C6.64495 4.18005 6.63232 4.17534 6.6181 4.17172C6.54061 4.17198 6.53522 4.25911 6.5397 4.29218C6.53387 4.29842 6.5306 4.45471 6.63629 4.49794Z" fill="white"/>
<path fill-rule="evenodd" clip-rule="evenodd" d="M10.7962 6.2332C10.9381 6.29991 11.2759 6.26152 11.1936 6.046C11.1936 6.02608 11.1885 5.95858 11.1865 5.94032C11.1575 5.87384 11.0785 5.89028 11.0605 5.95891C11.0549 5.98139 11.0706 6.01801 11.0499 6.0293C11.0381 6.04109 10.9927 6.03415 10.9946 5.97186C10.9946 5.952 10.9798 5.93069 10.9708 5.91807C10.9619 5.91229 10.9562 5.9107 10.9399 5.9107C10.9201 5.91146 10.9205 5.91654 10.9096 5.93295C10.905 5.94961 10.8987 5.96592 10.8987 5.98484C10.8962 6.00702 10.8877 6.01492 10.8711 6.01821C10.8526 6.01821 10.8568 6.0202 10.8418 6.01081C10.8329 6.00118 10.8218 5.99753 10.8218 5.98116C10.8218 5.96419 10.8179 5.93673 10.8127 5.92554C10.8049 5.91532 10.7922 5.9106 10.778 5.90698C10.7005 5.90725 10.6951 5.99437 10.6996 6.02744C10.6938 6.03368 10.6905 6.18997 10.7962 6.2332ZM13.222 5.51502C13.3639 5.58172 13.6307 5.55334 13.6194 5.32782C13.6194 5.3079 13.6143 5.24043 13.6122 5.22213C13.5833 5.15566 13.5043 5.1721 13.4863 5.24073C13.4807 5.26321 13.4964 5.29983 13.4757 5.31112C13.4639 5.32291 13.4185 5.31597 13.4204 5.25368C13.4204 5.23382 13.4056 5.2125 13.3966 5.19989C13.3876 5.19411 13.382 5.19252 13.3657 5.19252C13.3459 5.19328 13.3462 5.19836 13.3354 5.21476C13.3308 5.23143 13.3244 5.24773 13.3244 5.26666C13.322 5.28884 13.3135 5.29674 13.2969 5.30003C13.2784 5.30003 13.2826 5.30202 13.2676 5.29262C13.2587 5.28299 13.2476 5.27934 13.2476 5.26297C13.2476 5.24601 13.2437 5.21855 13.2385 5.20736C13.2306 5.19713 13.218 5.19242 13.2038 5.1888C13.1263 5.18906 13.1209 5.27619 13.1254 5.30926C13.1196 5.3155 13.1163 5.47179 13.222 5.51502ZM14.4783 7.31894C14.231 7.59363 14.3401 8.04792 14.3959 8.1458C14.4775 8.30657 14.5431 8.40967 14.7018 8.48919C14.8463 8.59401 14.9589 8.5285 15.021 8.45509C15.1664 8.30657 15.1681 7.92736 15.2364 7.85222C15.2843 7.71419 15.4049 7.73777 15.4634 7.79893C15.5201 7.87928 15.5869 7.93108 15.6702 7.97484C15.8058 8.09278 15.9678 8.11429 16.1274 8.00685C16.2365 7.94655 16.3073 7.86865 16.3712 7.71403C16.4421 7.52709 16.4026 6.66322 16.3884 6.15122C16.3829 6.11105 16.2474 5.44715 16.2474 5.43975C16.2474 5.43231 16.2295 5.10091 16.2146 5.02195C16.212 4.98991 16.2039 4.98071 16.238 4.98476C16.2742 5.01475 16.2791 5.01664 16.3017 5.0265C16.3381 5.03307 16.3708 4.97188 16.3488 4.9156L16.0103 4.30025C15.9831 4.27389 15.948 4.24493 15.9049 4.30769C15.8637 4.34325 15.8199 4.40763 15.8212 4.4904C15.8313 4.63623 15.8573 4.78458 15.8673 4.93044L16.0027 5.67924C16.0454 6.21301 16.056 6.64987 16.0987 7.18364C16.0927 7.40965 16.0214 7.60672 15.9545 7.63514C15.9545 7.63514 15.8528 7.69324 15.7846 7.62906C15.7349 7.60944 15.5363 7.30284 15.5363 7.30284C15.4348 7.2111 15.3678 7.23733 15.2956 7.30284C15.0963 7.49246 15.0062 7.84717 14.8707 8.09185C14.8358 8.14647 14.7372 8.19318 14.6278 8.08786C14.3501 7.71406 14.5129 7.18218 14.4783 7.31894ZM13.2857 4.20582C13.4128 4.25828 13.5025 4.51205 13.4732 4.63597C13.4479 4.78926 13.3805 4.95482 13.332 4.93327C13.2793 4.91401 13.3679 4.78086 13.3173 4.64121C13.2892 4.5503 13.1157 4.38419 13.134 4.33521C13.0981 4.23261 13.2077 4.18772 13.2857 4.20582Z" fill="white"/>
<path fill-rule="evenodd" clip-rule="evenodd" d="M14.8877 7.4693C14.9144 7.16453 14.8693 6.97869 14.8613 6.79956C14.8533 6.62043 14.6557 5.25366 14.6156 5.11812C14.5673 4.86186 14.8077 5.08376 14.7814 4.93471C14.6982 4.74678 14.4913 4.47319 14.4263 4.30996C14.3872 4.24003 14.4036 4.17781 14.3161 4.29157C14.2349 4.55307 14.2067 4.76683 14.2377 4.92923C14.4462 6.00136 14.66 6.89286 14.6261 7.9135C14.7249 7.91416 14.8389 7.69054 14.8877 7.4693ZM17.0598 4.63774C17.1757 4.69452 17.2436 5.01257 17.2308 5.10345C17.2077 5.26943 17.1462 5.44866 17.1021 5.42532C17.054 5.40447 17.1117 5.17918 17.0886 5.10913C17.063 5.01071 16.9048 4.83088 16.9215 4.77786C16.8888 4.66679 16.9887 4.61818 17.0598 4.63774ZM8.44589 6.8929C8.55674 6.9346 8.62176 7.16832 8.6095 7.23512C8.58739 7.35704 8.52854 7.48876 8.48632 7.47163C8.44037 7.45629 8.49555 7.29074 8.47348 7.23927C8.46412 7.11443 8.31025 7.04978 8.31345 6.99586C8.28474 6.89672 8.37783 6.87845 8.44589 6.8929Z" fill="white"/>
<path fill-rule="evenodd" clip-rule="evenodd" d="M11.1248 7.24404C11.2678 7.25301 11.3394 7.36364 11.2053 7.41006C11.0731 7.45465 10.9461 7.48952 10.9454 7.67781C10.9944 7.94018 10.8784 7.85013 10.8092 7.81451C10.7277 7.75683 10.499 7.61795 10.4664 7.31812C10.4615 7.24657 10.5181 7.18634 10.6092 7.18677C10.7465 7.22353 10.9491 7.22621 11.1247 7.24404H11.1248Z" fill="#1B9D00"/>
<path fill-rule="evenodd" clip-rule="evenodd" d="M5.48268 4.13009C5.64625 4.1787 5.65592 4.41564 5.64386 4.4849C5.62206 4.61133 5.56411 4.74787 5.5225 4.73007C5.47722 4.7142 5.52072 4.54257 5.49899 4.48918C5.47473 4.41421 5.33653 4.27721 5.35219 4.23684C5.32143 4.1522 5.41563 4.11515 5.48268 4.13009ZM8.71304 5.24704C8.58754 5.31395 8.53886 5.51333 8.61702 5.62948C8.69 5.73174 8.80526 5.69382 8.82062 5.69382C8.94359 5.709 9.01654 5.46665 9.01654 5.46665C9.01654 5.46665 9.02041 5.39851 8.87439 5.52728C8.81294 5.53863 8.80526 5.51589 8.78989 5.48179C8.77709 5.4187 8.77965 5.35562 8.8091 5.2925C8.83086 5.23193 8.78346 5.2054 8.71304 5.24704ZM9.65438 4.03845C9.59131 4.08012 9.46578 4.20828 9.46194 4.35597C9.45813 4.43928 9.4424 4.43901 9.49772 4.49204C9.53771 4.54888 9.57804 4.54377 9.65876 4.5021C9.70512 4.46843 9.72079 4.44608 9.73642 4.38964C9.75562 4.29501 9.63487 4.43453 9.61951 4.32921C9.59263 4.23139 9.67018 4.19135 9.74316 4.09672C9.74558 4.03187 9.74417 3.98595 9.65438 4.03845ZM10.4128 4.17126C10.3856 4.23043 10.353 4.53958 10.3584 4.53958C10.3367 4.63169 10.4562 4.6711 10.5106 4.5527C10.5921 4.33565 10.5921 4.24358 10.5975 4.15147C10.5721 4.01122 10.4762 4.0156 10.4128 4.17126ZM15.1943 6.56919C15.2106 6.55312 15.868 6.09263 15.868 6.09263C15.935 6.06942 15.9205 6.33003 15.8898 6.32823C15.9024 6.37997 15.2414 6.82263 15.1942 6.8048C15.1616 6.82801 15.129 6.62633 15.1942 6.56919H15.1943ZM15.7936 6.56521C15.9095 6.62198 15.9557 6.95611 15.9429 7.04698C15.947 7.22369 15.8312 7.3654 15.787 7.34209C15.7389 7.32124 15.7912 7.12272 15.7681 7.05266C15.7425 6.95425 15.6441 6.76904 15.6607 6.71601C15.6281 6.60495 15.7225 6.54565 15.7936 6.56521ZM11.8831 8.00423C11.9288 7.93835 12.0701 7.84356 12.0733 7.84356C12.1384 7.81142 12.2021 7.86876 12.1983 7.86498C12.2091 7.92926 12.157 7.98906 12.1733 8.07475C12.1875 8.10928 12.198 8.14763 12.2622 8.13302C12.3666 8.05207 12.4633 8.04686 12.5677 8.04172C12.6477 8.04646 12.6509 8.17994 12.6003 8.18094C12.4075 8.22221 12.3212 8.27307 12.1835 8.32484C12.1183 8.36232 12.0624 8.31478 12.0624 8.30943C12.0624 8.30409 12.0242 8.27298 12.0509 8.18784C12.0556 8.11958 12.0277 8.08216 11.97 8.08989C11.9265 8.11307 11.8883 8.12841 11.8665 8.07917C11.858 8.04281 11.8552 8.02511 11.8831 8.00423ZM16.4853 8.18419C16.5135 8.21952 16.5317 8.25222 16.4831 8.31026C16.4369 8.3519 16.4045 8.37484 16.3584 8.41648C16.3366 8.45307 16.3227 8.50858 16.3893 8.52628C16.5122 8.56035 16.7965 8.37859 16.7965 8.37481C16.8426 8.34074 16.8273 8.27636 16.8234 8.27636C16.7965 8.24608 16.7359 8.26408 16.6952 8.25916C16.6758 8.25916 16.6122 8.24967 16.6425 8.19415C16.6677 8.15962 16.6768 8.13847 16.6939 8.0959C16.7131 8.05427 16.6966 8.02651 16.6275 8.00376C16.557 7.99115 16.5289 7.99746 16.4507 8.00376C16.4085 8.0126 16.3941 8.03122 16.3864 8.08169C16.3894 8.15826 16.4367 8.15391 16.4853 8.18419Z" fill="white"/>
<path fill-rule="evenodd" clip-rule="evenodd" d="M11.9082 6.29996C11.8902 6.33068 11.8293 6.32918 11.7721 6.29664C11.715 6.26411 11.6832 6.21274 11.7013 6.18199C11.7193 6.15125 11.7802 6.15278 11.8374 6.18538C11.8945 6.21799 11.9263 6.26925 11.9082 6.29996ZM8.90728 4.52048C8.87312 4.52871 8.82847 4.4987 8.80755 4.45344C8.78663 4.40818 8.79741 4.36482 8.83154 4.35659C8.86567 4.34835 8.91034 4.37833 8.93127 4.42359C8.95219 4.46885 8.94144 4.51224 8.90728 4.52048Z" fill="#259F00"/>
<path fill-rule="evenodd" clip-rule="evenodd" d="M14.8435 12.4502C15.1585 12.4653 15.4546 12.4537 15.7696 12.4689C15.8267 12.5167 15.7859 12.6341 15.7479 12.6257C15.6455 12.6231 15.5864 12.6206 15.484 12.6181C15.4805 12.5192 15.2243 12.5354 15.2317 12.6212C15.0934 12.6376 14.9687 12.6165 14.8304 12.6114C14.7895 12.5613 14.7947 12.4709 14.8435 12.4502H14.8435Z" fill="#209000"/>
</g>
</g>
<defs>
<clipPath id="clip0_15_155">
<rect width="23" height="17" fill="white"/>
</clipPath>
</defs>
</svg>
