<svg width="23" height="22" viewBox="0 0 23 22" fill="none" xmlns="http://www.w3.org/2000/svg">
<path d="M19.5879 4.8125V6.1875C19.5879 6.36984 19.5155 6.5447 19.3865 6.67364C19.2576 6.80257 19.0827 6.875 18.9004 6.875H8.58789C8.40555 6.875 8.23069 6.80257 8.10175 6.67364C7.97282 6.5447 7.90039 6.36984 7.90039 6.1875V4.8125C7.90039 4.63016 7.97282 4.4553 8.10175 4.32636C8.23069 4.19743 8.40555 4.125 8.58789 4.125H18.9004C19.0827 4.125 19.2576 4.19743 19.3865 4.32636C19.5155 4.4553 19.5879 4.63016 19.5879 4.8125ZM5.15039 4.125H3.77539C3.59305 4.125 3.41819 4.19743 3.28925 4.32636C3.16032 4.4553 3.08789 4.63016 3.08789 4.8125V6.1875C3.08789 6.36984 3.16032 6.5447 3.28925 6.67364C3.41819 6.80257 3.59305 6.875 3.77539 6.875H5.15039C5.33273 6.875 5.5076 6.80257 5.63653 6.67364C5.76546 6.5447 5.83789 6.36984 5.83789 6.1875V4.8125C5.83789 4.63016 5.76546 4.4553 5.63653 4.32636C5.5076 4.19743 5.33273 4.125 5.15039 4.125ZM18.9004 9.625H8.58789C8.40555 9.625 8.23069 9.69743 8.10175 9.82636C7.97282 9.9553 7.90039 10.1302 7.90039 10.3125V11.6875C7.90039 11.8698 7.97282 12.0447 8.10175 12.1736C8.23069 12.3026 8.40555 12.375 8.58789 12.375H18.9004C19.0827 12.375 19.2576 12.3026 19.3865 12.1736C19.5155 12.0447 19.5879 11.8698 19.5879 11.6875V10.3125C19.5879 10.1302 19.5155 9.9553 19.3865 9.82636C19.2576 9.69743 19.0827 9.625 18.9004 9.625ZM5.15039 9.625H3.77539C3.59305 9.625 3.41819 9.69743 3.28925 9.82636C3.16032 9.9553 3.08789 10.1302 3.08789 10.3125V11.6875C3.08789 11.8698 3.16032 12.0447 3.28925 12.1736C3.41819 12.3026 3.59305 12.375 3.77539 12.375H5.15039C5.33273 12.375 5.5076 12.3026 5.63653 12.1736C5.76546 12.0447 5.83789 11.8698 5.83789 11.6875V10.3125C5.83789 10.1302 5.76546 9.9553 5.63653 9.82636C5.5076 9.69743 5.33273 9.625 5.15039 9.625ZM18.9004 15.125H8.58789C8.40555 15.125 8.23069 15.1974 8.10175 15.3264C7.97282 15.4553 7.90039 15.6302 7.90039 15.8125V17.1875C7.90039 17.3698 7.97282 17.5447 8.10175 17.6736C8.23069 17.8026 8.40555 17.875 8.58789 17.875H18.9004C19.0827 17.875 19.2576 17.8026 19.3865 17.6736C19.5155 17.5447 19.5879 17.3698 19.5879 17.1875V15.8125C19.5879 15.6302 19.5155 15.4553 19.3865 15.3264C19.2576 15.1974 19.0827 15.125 18.9004 15.125ZM5.15039 15.125H3.77539C3.59305 15.125 3.41819 15.1974 3.28925 15.3264C3.16032 15.4553 3.08789 15.6302 3.08789 15.8125V17.1875C3.08789 17.3698 3.16032 17.5447 3.28925 17.6736C3.41819 17.8026 3.59305 17.875 3.77539 17.875H5.15039C5.33273 17.875 5.5076 17.8026 5.63653 17.6736C5.76546 17.5447 5.83789 17.3698 5.83789 17.1875V15.8125C5.83789 15.6302 5.76546 15.4553 5.63653 15.3264C5.5076 15.1974 5.33273 15.125 5.15039 15.125Z" fill="#696F79"/>
</svg>
