<svg width="23" height="22" viewBox="0 0 23 22" fill="none" xmlns="http://www.w3.org/2000/svg">
<path d="M15.4888 14.7812C15.4888 14.9852 15.4283 15.1846 15.315 15.3542C15.2017 15.5238 15.0406 15.6559 14.8522 15.734C14.6637 15.8121 14.4564 15.8325 14.2563 15.7927C14.0563 15.7529 13.8725 15.6547 13.7283 15.5105C13.5841 15.3662 13.4859 15.1825 13.4461 14.9824C13.4063 14.7824 13.4267 14.575 13.5048 14.3866C13.5828 14.1982 13.715 14.0371 13.8846 13.9238C14.0542 13.8105 14.2536 13.75 14.4575 13.75C14.731 13.75 14.9933 13.8587 15.1867 14.052C15.3801 14.2454 15.4888 14.5077 15.4888 14.7812ZM8.27002 8.25C8.47398 8.25 8.67336 8.18952 8.84295 8.0762C9.01254 7.96289 9.14472 7.80183 9.22277 7.61339C9.30082 7.42496 9.32125 7.21761 9.28145 7.01756C9.24166 6.81752 9.14345 6.63377 8.99922 6.48955C8.855 6.34532 8.67125 6.24711 8.47121 6.20731C8.27116 6.16752 8.06381 6.18795 7.87538 6.266C7.68694 6.34405 7.52588 6.47623 7.41257 6.64582C7.29925 6.81541 7.23877 7.01479 7.23877 7.21875C7.23877 7.49225 7.34742 7.75456 7.54082 7.94795C7.73421 8.14135 7.99651 8.25 8.27002 8.25ZM19.6138 4.125V17.875C19.6138 18.2397 19.4689 18.5894 19.211 18.8473C18.9532 19.1051 18.6034 19.25 18.2388 19.25H4.48877C4.1241 19.25 3.77436 19.1051 3.5165 18.8473C3.25864 18.5894 3.11377 18.2397 3.11377 17.875V4.125C3.11377 3.76033 3.25864 3.41059 3.5165 3.15273C3.77436 2.89487 4.1241 2.75 4.48877 2.75H18.2388C18.6034 2.75 18.9532 2.89487 19.211 3.15273C19.4689 3.41059 19.6138 3.76033 19.6138 4.125ZM5.86377 7.21875C5.86377 7.69466 6.00489 8.15989 6.2693 8.55559C6.5337 8.9513 6.9095 9.25971 7.34919 9.44184C7.78887 9.62396 8.27269 9.67161 8.73946 9.57876C9.20622 9.48592 9.63497 9.25675 9.9715 8.92023C10.308 8.58371 10.5372 8.15495 10.63 7.68819C10.7229 7.22142 10.6752 6.7376 10.4931 6.29792C10.311 5.85823 10.0026 5.48243 9.60686 5.21803C9.21115 4.95362 8.74593 4.8125 8.27002 4.8125C7.63184 4.8125 7.0198 5.06602 6.56854 5.51727C6.11728 5.96853 5.86377 6.58057 5.86377 7.21875ZM16.8638 14.7812C16.8638 14.3053 16.7226 13.8401 16.4582 13.4444C16.1938 13.0487 15.818 12.7403 15.3784 12.5582C14.9387 12.376 14.4549 12.3284 13.9881 12.4212C13.5213 12.5141 13.0926 12.7433 12.756 13.0798C12.4195 13.4163 12.1904 13.845 12.0975 14.3118C12.0047 14.7786 12.0523 15.2624 12.2344 15.7021C12.4166 16.1418 12.725 16.5176 13.1207 16.782C13.5164 17.0464 13.9816 17.1875 14.4575 17.1875C15.0957 17.1875 15.7077 16.934 16.159 16.4827C16.6103 16.0315 16.8638 15.4194 16.8638 14.7812ZM16.6627 5.70109C16.5988 5.63717 16.523 5.58646 16.4395 5.55187C16.3561 5.51727 16.2666 5.49946 16.1763 5.49946C16.0859 5.49946 15.9965 5.51727 15.913 5.55187C15.8295 5.58646 15.7537 5.63717 15.6899 5.70109L6.06486 15.3261C5.93586 15.4551 5.86339 15.6301 5.86339 15.8125C5.86339 15.9949 5.93586 16.1699 6.06486 16.2989C6.19387 16.4279 6.36883 16.5004 6.55127 16.5004C6.73371 16.5004 6.90867 16.4279 7.03768 16.2989L16.6627 6.67391C16.7266 6.61006 16.7773 6.53423 16.8119 6.45077C16.8465 6.36731 16.8643 6.27785 16.8643 6.1875C16.8643 6.09715 16.8465 6.00769 16.8119 5.92423C16.7773 5.84077 16.7266 5.76494 16.6627 5.70109Z" fill="#696F79"/>
</svg>
