<svg width="13" height="13" viewBox="0 0 13 13" fill="none" xmlns="http://www.w3.org/2000/svg">
<path fill-rule="evenodd" clip-rule="evenodd" d="M5.40234 11.8202C5.40234 12.374 5.86164 12.8333 6.4155 12.8333C6.96936 12.8333 7.42866 12.374 7.42866 11.8202V7.43257H11.8202C12.374 7.43257 12.8333 6.97327 12.8333 6.41941C12.8333 5.86555 12.374 5.40625 11.8202 5.40625H7.42866V1.01316C7.42866 0.459298 6.96936 0 6.4155 0C5.86164 0 5.40234 0.459298 5.40234 1.01316V5.40625H1.01316C0.459298 5.40625 0 5.86555 0 6.41941C0 6.97327 0.459298 7.43257 1.01316 7.43257H5.40234V11.8202Z" fill="#1DBF73"/>
</svg>
