<svg width="20" height="21" viewBox="0 0 20 21" fill="none" xmlns="http://www.w3.org/2000/svg">
<path d="M10 0.111328C4.4775 0.111328 0 4.58883 0 10.1113C0 15.6338 4.4775 20.1113 10 20.1113C15.5225 20.1113 20 15.6338 20 10.1113C20 4.58883 15.5225 0.111328 10 0.111328ZM10 18.4447C5.405 18.4447 1.66667 14.7063 1.66667 10.1113C1.66667 5.51633 5.405 1.77799 10 1.77799C14.595 1.77799 18.3333 5.51633 18.3333 10.1113C18.3333 14.7063 14.595 18.4447 10 18.4447ZM16.1908 6.92133L8.04333 15.0688L3.81 10.8355L4.98833 9.65716L8.04333 12.7122L15.0125 5.74299L16.1908 6.92133Z" fill="#C3C5C8"/>
</svg>
