<svg width="22" height="22" viewBox="0 0 22 22" fill="none" xmlns="http://www.w3.org/2000/svg">
<path d="M14.1341 16.8118C14.2017 16.9156 14.2401 17.0357 14.2451 17.1594C14.2502 17.2831 14.2217 17.4059 14.1627 17.5148C14.1037 17.6237 14.0164 17.7147 13.9101 17.778C13.8037 17.8414 13.6821 17.8749 13.5583 17.8749H0.879067C0.755227 17.8749 0.633691 17.8414 0.527299 17.778C0.420906 17.7147 0.333609 17.6237 0.274629 17.5148C0.215649 17.4059 0.187177 17.2831 0.192221 17.1594C0.197265 17.0357 0.235638 16.9156 0.303285 16.8118C1.27103 15.3222 2.69449 14.1855 4.36125 13.5711C3.43983 12.9577 2.74028 12.064 2.36604 11.0223C1.99181 9.98052 1.96276 8.84598 2.28319 7.78644C2.60363 6.72689 3.25653 5.79859 4.14535 5.13881C5.03418 4.47903 6.11174 4.1228 7.21868 4.1228C8.32562 4.1228 9.40317 4.47903 10.292 5.13881C11.1808 5.79859 11.8337 6.72689 12.1542 7.78644C12.4746 8.84598 12.4455 9.98052 12.0713 11.0223C11.6971 12.064 10.9975 12.9577 10.0761 13.5711C11.7429 14.1855 13.1663 15.3222 14.1341 16.8118ZM21.6888 16.799C20.7208 15.3156 19.3005 14.1837 17.6386 13.5711C18.7264 12.8384 19.4941 11.7187 19.7854 10.4399C20.0767 9.16108 19.8697 7.81933 19.2066 6.68775C18.5435 5.55616 17.4741 4.71979 16.2161 4.34887C14.9581 3.97796 13.606 4.10038 12.4351 4.69122C12.3903 4.71434 12.3512 4.74702 12.3204 4.78695C12.2897 4.82688 12.2681 4.87307 12.2572 4.92227C12.2463 4.97147 12.2463 5.02246 12.2573 5.07164C12.2683 5.12081 12.29 5.16697 12.3208 5.20685C13.1915 6.29293 13.6915 7.62929 13.7477 9.02016C13.8038 10.411 13.4131 11.7833 12.6327 12.9361C12.5823 13.0114 12.5637 13.1036 12.5809 13.1926C12.5981 13.2816 12.6498 13.3602 12.7247 13.4113C13.7421 14.1214 14.6131 15.0209 15.2899 16.0608C15.5629 16.4788 15.6744 16.9819 15.6036 17.4761C15.5956 17.5253 15.5984 17.5756 15.6118 17.6236C15.6252 17.6716 15.6489 17.716 15.6812 17.754C15.7135 17.7919 15.7536 17.8224 15.7988 17.8432C15.844 17.8641 15.8932 17.8749 15.9431 17.8749H21.1251C21.2765 17.8749 21.4236 17.825 21.5438 17.7329C21.6639 17.6407 21.7502 17.5115 21.7894 17.3653C21.8133 17.2691 21.8167 17.169 21.7994 17.0714C21.782 16.9739 21.7444 16.881 21.6888 16.799Z" fill="#696F79"/>
</svg>
