<svg width="16" height="16" viewBox="0 0 16 16" fill="none" xmlns="http://www.w3.org/2000/svg">
<path d="M14.8808 6.22953C14.6157 5.9525 14.3415 5.66703 14.2381 5.41602C14.1425 5.18609 14.1369 4.805 14.1312 4.43586C14.1207 3.74961 14.1095 2.97195 13.5687 2.43125C13.028 1.89055 12.2504 1.8793 11.5641 1.86875C11.195 1.86312 10.8139 1.8575 10.584 1.76187C10.3337 1.65852 10.0475 1.3843 9.77047 1.11922C9.28531 0.653047 8.73406 0.125 8 0.125C7.26594 0.125 6.71539 0.653047 6.22953 1.11922C5.9525 1.3843 5.66703 1.65852 5.41602 1.76187C5.1875 1.8575 4.805 1.86312 4.43586 1.86875C3.74961 1.8793 2.97195 1.89055 2.43125 2.43125C1.89055 2.97195 1.88281 3.74961 1.86875 4.43586C1.86312 4.805 1.8575 5.18609 1.76187 5.41602C1.65852 5.66633 1.3843 5.9525 1.11922 6.22953C0.653047 6.71469 0.125 7.26594 0.125 8C0.125 8.73406 0.653047 9.28461 1.11922 9.77047C1.3843 10.0475 1.65852 10.333 1.76187 10.584C1.8575 10.8139 1.86312 11.195 1.86875 11.5641C1.8793 12.2504 1.89055 13.028 2.43125 13.5687C2.97195 14.1095 3.74961 14.1207 4.43586 14.1312C4.805 14.1369 5.18609 14.1425 5.41602 14.2381C5.66633 14.3415 5.9525 14.6157 6.22953 14.8808C6.71469 15.347 7.26594 15.875 8 15.875C8.73406 15.875 9.28461 15.347 9.77047 14.8808C10.0475 14.6157 10.333 14.3415 10.584 14.2381C10.8139 14.1425 11.195 14.1369 11.5641 14.1312C12.2504 14.1207 13.028 14.1095 13.5687 13.5687C14.1095 13.028 14.1207 12.2504 14.1312 11.5641C14.1369 11.195 14.1425 10.8139 14.2381 10.584C14.3415 10.3337 14.6157 10.0475 14.8808 9.77047C15.347 9.28531 15.875 8.73406 15.875 8C15.875 7.26594 15.347 6.71539 14.8808 6.22953ZM11.2105 6.71047L7.27297 10.648C7.22073 10.7003 7.15869 10.7418 7.0904 10.7701C7.02212 10.7984 6.94892 10.8129 6.875 10.8129C6.80108 10.8129 6.72788 10.7984 6.6596 10.7701C6.59131 10.7418 6.52927 10.7003 6.47703 10.648L4.78953 8.96047C4.68398 8.85492 4.62469 8.71177 4.62469 8.5625C4.62469 8.41323 4.68398 8.27008 4.78953 8.16453C4.89508 8.05898 5.03823 7.99969 5.1875 7.99969C5.33677 7.99969 5.47992 8.05898 5.58547 8.16453L6.875 9.45477L10.4145 5.91453C10.4668 5.86227 10.5288 5.82081 10.5971 5.79253C10.6654 5.76424 10.7386 5.74969 10.8125 5.74969C10.8864 5.74969 10.9596 5.76424 11.0279 5.79253C11.0962 5.82081 11.1582 5.86227 11.2105 5.91453C11.2627 5.96679 11.3042 6.02884 11.3325 6.09712C11.3608 6.1654 11.3753 6.23859 11.3753 6.3125C11.3753 6.38641 11.3608 6.4596 11.3325 6.52788C11.3042 6.59616 11.2627 6.65821 11.2105 6.71047Z" fill="#1DBF73"/>
</svg>
