<svg width="30" height="30" viewBox="0 0 30 30" fill="none" xmlns="http://www.w3.org/2000/svg">
<path d="M28.6875 17.625C28.589 17.6988 28.4769 17.7526 28.3577 17.7831C28.2384 17.8137 28.1143 17.8205 27.9924 17.803C27.8705 17.7856 27.7533 17.7444 27.6473 17.6817C27.5414 17.6189 27.4489 17.536 27.375 17.4375C26.8099 16.6779 26.0744 16.0617 25.2277 15.6383C24.381 15.2149 23.4467 14.9963 22.5 15C22.3156 14.9999 22.1354 14.9456 21.9818 14.8437C21.8281 14.7417 21.708 14.5968 21.6363 14.4269C21.5877 14.3116 21.5626 14.1877 21.5626 14.0625C21.5626 13.9373 21.5877 13.8134 21.6363 13.698C21.708 13.5282 21.8281 13.3832 21.9818 13.2813C22.1354 13.1794 22.3156 13.125 22.5 13.125C23.026 13.1249 23.5415 12.9774 23.9878 12.699C24.4342 12.4207 24.7936 12.0228 25.0251 11.5505C25.2567 11.0782 25.3511 10.5504 25.2977 10.0271C25.2444 9.50376 25.0453 9.00591 24.7231 8.59007C24.401 8.17423 23.9687 7.85706 23.4753 7.67459C22.982 7.49213 22.4473 7.45168 21.9321 7.55784C21.4169 7.664 20.9418 7.91251 20.5608 8.27515C20.1798 8.63779 19.9081 9.10002 19.7766 9.60934C19.7458 9.72861 19.6918 9.84064 19.6177 9.93905C19.5437 10.0375 19.4509 10.1203 19.3448 10.1829C19.2387 10.2455 19.1213 10.2865 18.9994 10.3037C18.8774 10.3209 18.7532 10.3139 18.634 10.2832C18.5147 10.2524 18.4027 10.1984 18.3043 10.1243C18.2059 10.0503 18.123 9.95753 18.0604 9.85143C17.9979 9.74534 17.9568 9.62795 17.9396 9.50598C17.9224 9.38402 17.9294 9.25986 17.9601 9.14059C18.1427 8.43432 18.4875 7.78039 18.9672 7.23085C19.447 6.6813 20.0483 6.2513 20.7235 5.97506C21.3986 5.69883 22.1289 5.58398 22.8563 5.63965C23.5836 5.69532 24.288 5.91999 24.9132 6.29576C25.5384 6.67153 26.0674 7.18805 26.4579 7.80421C26.8484 8.42036 27.0897 9.11915 27.1626 9.84498C27.2355 10.5708 27.138 11.3036 26.8778 11.9851C26.6177 12.6667 26.2021 13.278 25.6641 13.7707C26.9388 14.3226 28.047 15.1985 28.8785 16.3113C28.9524 16.41 29.006 16.5224 29.0364 16.6419C29.0668 16.7614 29.0733 16.8857 29.0556 17.0078C29.0378 17.1298 28.9962 17.2471 28.933 17.353C28.8698 17.4589 28.7864 17.5513 28.6875 17.625ZM22.3734 24.8437C22.4413 24.9504 22.4868 25.0697 22.5073 25.1945C22.5278 25.3193 22.5229 25.4469 22.4928 25.5697C22.4628 25.6925 22.4081 25.808 22.3323 25.9091C22.2564 26.0103 22.1609 26.095 22.0514 26.1583C21.942 26.2216 21.8208 26.2621 21.6953 26.2773C21.5698 26.2926 21.4425 26.2823 21.3211 26.247C21.1996 26.2118 21.0866 26.1524 20.9887 26.0723C20.8908 25.9923 20.8102 25.8933 20.7516 25.7812C20.161 24.7812 19.3199 23.9525 18.3113 23.3768C17.3027 22.801 16.1614 22.4983 15 22.4983C13.8386 22.4983 12.6973 22.801 11.6887 23.3768C10.6801 23.9525 9.839 24.7812 9.24843 25.7812C9.18982 25.8933 9.10915 25.9923 9.01128 26.0723C8.91342 26.1524 8.80036 26.2118 8.67893 26.247C8.5575 26.2823 8.43019 26.2926 8.30468 26.2773C8.17916 26.2621 8.05802 26.2216 7.94856 26.1583C7.83909 26.095 7.74355 26.0103 7.66769 25.9091C7.59184 25.808 7.53722 25.6925 7.50714 25.5697C7.47706 25.4469 7.47213 25.3193 7.49265 25.1945C7.51317 25.0697 7.55872 24.9504 7.62655 24.8437C8.53546 23.282 9.92131 22.0531 11.5805 21.3375C10.6469 20.6227 9.96073 19.6333 9.61851 18.5084C9.27629 17.3834 9.29519 16.1796 9.67255 15.0659C10.0499 13.9523 10.7668 12.985 11.7223 12.2998C12.6779 11.6147 13.8242 11.2462 15 11.2462C16.1758 11.2462 17.3221 11.6147 18.2776 12.2998C19.2332 12.985 19.9501 13.9523 20.3274 15.0659C20.7048 16.1796 20.7237 17.3834 20.3815 18.5084C20.0393 19.6333 19.3531 20.6227 18.4195 21.3375C20.0787 22.0531 21.4645 23.282 22.3734 24.8437ZM15 20.625C15.7417 20.625 16.4667 20.405 17.0834 19.993C17.7001 19.5809 18.1807 18.9953 18.4645 18.31C18.7484 17.6248 18.8226 16.8708 18.6779 16.1434C18.5332 15.4159 18.1761 14.7478 17.6516 14.2233C17.1272 13.6989 16.459 13.3417 15.7316 13.197C15.0042 13.0523 14.2502 13.1266 13.5649 13.4104C12.8797 13.6942 12.294 14.1749 11.882 14.7916C11.4699 15.4083 11.25 16.1333 11.25 16.875C11.25 17.8695 11.6451 18.8234 12.3483 19.5266C13.0516 20.2299 14.0054 20.625 15 20.625ZM8.43749 14.0625C8.43749 13.8138 8.33872 13.5754 8.1629 13.3996C7.98709 13.2237 7.74863 13.125 7.49999 13.125C6.97397 13.1249 6.4585 12.9774 6.01214 12.699C5.56578 12.4207 5.20642 12.0228 4.97487 11.5505C4.74332 11.0782 4.64888 10.5504 4.70225 10.0271C4.75563 9.50376 4.95469 9.00591 5.27683 8.59007C5.59897 8.17423 6.03128 7.85706 6.52464 7.67459C7.018 7.49213 7.55264 7.45168 8.06784 7.55784C8.58304 7.664 9.05814 7.91251 9.43918 8.27515C9.82022 8.63779 10.0919 9.10002 10.2234 9.60934C10.2856 9.85021 10.4409 10.0565 10.6552 10.1829C10.8694 10.3093 11.1251 10.3453 11.366 10.2832C11.6069 10.221 11.8132 10.0657 11.9396 9.85143C12.0659 9.63716 12.102 9.38146 12.0398 9.14059C11.8573 8.43432 11.5125 7.78039 11.0327 7.23085C10.553 6.6813 9.95165 6.2513 9.2765 5.97506C8.60135 5.69883 7.87104 5.58398 7.14369 5.63965C6.41634 5.69532 5.71202 5.91999 5.08678 6.29576C4.46153 6.67153 3.93262 7.18805 3.54212 7.80421C3.15163 8.42036 2.91032 9.11915 2.83741 9.84498C2.7645 10.5708 2.862 11.3036 3.12215 11.9851C3.3823 12.6667 3.79791 13.278 4.33593 13.7707C3.06243 14.3231 1.95551 15.199 1.12499 16.3113C0.97565 16.5102 0.911444 16.7603 0.946497 17.0065C0.981551 17.2528 1.11299 17.475 1.3119 17.6244C1.51082 17.7737 1.76091 17.8379 2.00716 17.8029C2.25341 17.7678 2.47565 17.6364 2.62499 17.4375C3.19005 16.6779 3.92555 16.0617 4.77228 15.6383C5.61902 15.2149 6.55332 14.9963 7.49999 15C7.74863 15 7.98709 14.9012 8.1629 14.7254C8.33872 14.5496 8.43749 14.3111 8.43749 14.0625Z" fill="#C3C5C8"/>
</svg>
